<svg width="16" height="16" viewBox="0 0 16 16" fill="none" xmlns="http://www.w3.org/2000/svg">
<path d="M14.2931 7.36665L8.16645 13.4933C7.41589 14.2439 6.39791 14.6655 5.33645 14.6655C4.275 14.6655 3.25702 14.2439 2.50645 13.4933C1.75589 12.7428 1.33423 11.7248 1.33423 10.6633C1.33423 9.60186 1.75589 8.58388 2.50645 7.83332L8.63312 1.70665C9.13349 1.20628 9.81215 0.925171 10.5198 0.925171C11.2274 0.925171 11.9061 1.20628 12.4065 1.70665C12.9068 2.20703 13.1879 2.88568 13.1879 3.59332C13.1879 4.30096 12.9068 4.97961 12.4065 5.47999L6.27312 11.6067C6.02293 11.8568 5.68361 11.9974 5.32979 11.9974C4.97597 11.9974 4.63664 11.8568 4.38645 11.6067C4.13627 11.3565 3.99571 11.0171 3.99571 10.6633C3.99571 10.3095 4.13627 9.97018 4.38645 9.71999L10.0465 4.06665" stroke="#959799" stroke-width="1.33333" stroke-linecap="round" stroke-linejoin="round"/>
</svg>
